<svg xmlns="http://www.w3.org/2000/svg" viewBox="0 0 1200 900"><defs><linearGradient id="b" x2="1" y2="1"><stop stop-color="#f9dfe4"/><stop offset="1" stop-color="#d98ca0"/></linearGradient><filter id="s"><feDropShadow dy="20" stdDeviation="18" flood-color="#4a1c28" flood-opacity=".18"/></filter></defs><rect width="1200" height="900" fill="url(#b)"/><path d="M0 700c250-130 410-60 600-20s360-60 600-120v340H0z" fill="#fff2ee"/><rect x="230" y="400" width="740" height="220" rx="40" fill="#fff9f0" filter="url(#s)"/><g fill="#d95e79"><circle cx="350" cy="380" r="70"/><circle cx="520" cy="350" r="82"/><circle cx="690" cy="390" r="75"/><circle cx="835" cy="350" r="68"/></g><g fill="#fff" opacity=".75"><circle cx="200" cy="180" r="18"/><circle cx="1000" cy="210" r="25"/><path d="M600 110l18 40 40 18-40 18-18 40-18-40-40-18 40-18z"/></g><path d="M310 620v130M890 620v130" stroke="#6e3544" stroke-width="20"/></svg>
